<svg width="208" height="70" viewBox="0 0 208 70" fill="none" xmlns="http://www.w3.org/2000/svg">
<g filter="url(#filter0_b_6626_185278)">
<rect x="51.5625" y="7" width="156" height="54" rx="8" fill="white" fill-opacity="0.05"/>
<path d="M95.1305 39.112C94.9598 39.112 94.7572 39.1013 94.5225 39.08C94.2985 39.0587 94.1118 39.0213 93.9625 38.968L91.8025 28.776C91.9198 28.7227 92.0532 28.6747 92.2025 28.632C92.3625 28.5893 92.5438 28.568 92.7465 28.568C93.0025 28.568 93.2158 28.616 93.3865 28.712C93.5572 28.808 93.6692 28.9893 93.7225 29.256L94.5225 33.592C94.6398 34.2427 94.7572 34.9093 94.8745 35.592C94.9918 36.264 95.0932 36.8933 95.1785 37.48C95.2638 36.8827 95.3758 36.2587 95.5145 35.608C95.6532 34.9573 95.8132 34.264 95.9945 33.528L97.0185 29.32C97.0825 29.0427 97.2265 28.8507 97.4505 28.744C97.6852 28.6267 97.9785 28.568 98.3305 28.568C98.6825 28.568 99.0025 28.6107 99.2905 28.696L100.443 33.528C100.603 34.2 100.752 34.8827 100.891 35.576C101.04 36.2587 101.168 36.8933 101.275 37.48C101.317 37.192 101.365 36.8773 101.419 36.536C101.483 36.184 101.547 35.832 101.611 35.48C101.675 35.1173 101.739 34.7653 101.803 34.424C101.867 34.0827 101.925 33.768 101.979 33.48L102.731 29.208C102.773 28.9627 102.875 28.7973 103.035 28.712C103.195 28.616 103.397 28.568 103.643 28.568C103.824 28.568 103.989 28.5893 104.139 28.632C104.288 28.664 104.416 28.7013 104.523 28.744L102.539 38.312C102.464 38.6533 102.315 38.872 102.091 38.968C101.867 39.064 101.579 39.112 101.227 39.112C101.067 39.112 100.88 39.1013 100.667 39.08C100.453 39.0693 100.272 39.0373 100.123 38.984L98.7785 33.48C98.7358 33.288 98.6878 33.08 98.6345 32.856C98.5918 32.6213 98.5438 32.376 98.4905 32.12C98.4478 31.864 98.3998 31.6027 98.3465 31.336C98.2932 31.0693 98.2345 30.8133 98.1705 30.568C98.0638 31.08 97.9518 31.5973 97.8345 32.12C97.7278 32.632 97.6265 33.0853 97.5305 33.48L96.3625 38.312C96.2772 38.6427 96.1332 38.8613 95.9305 38.968C95.7385 39.064 95.4718 39.112 95.1305 39.112ZM107.556 39.128C107.14 39.128 106.767 39.0693 106.436 38.952C106.116 38.824 105.844 38.6533 105.62 38.44C105.407 38.2267 105.241 37.9813 105.124 37.704C105.017 37.416 104.964 37.112 104.964 36.792C104.964 36.408 105.028 36.056 105.156 35.736C105.295 35.416 105.503 35.144 105.78 34.92C106.057 34.6853 106.404 34.504 106.82 34.376C107.247 34.248 107.753 34.184 108.34 34.184C108.895 34.184 109.524 34.248 110.228 34.376V33.976C110.228 33.4533 110.111 33.0853 109.876 32.872C109.641 32.648 109.22 32.536 108.612 32.536C108.303 32.536 108.031 32.5573 107.796 32.6C107.561 32.632 107.348 32.6747 107.156 32.728C106.975 32.7707 106.809 32.8133 106.66 32.856C106.521 32.888 106.388 32.904 106.26 32.904C106.036 32.904 105.871 32.808 105.764 32.616C105.657 32.424 105.604 32.1893 105.604 31.912C105.604 31.8587 105.604 31.8107 105.604 31.768C105.604 31.7147 105.609 31.6613 105.62 31.608C105.972 31.4907 106.409 31.384 106.932 31.288C107.455 31.1813 108.036 31.128 108.676 31.128C109.295 31.128 109.807 31.1973 110.212 31.336C110.628 31.4747 110.959 31.6827 111.204 31.96C111.46 32.2267 111.636 32.5573 111.732 32.952C111.839 33.336 111.892 33.784 111.892 34.296V35.976C111.892 36.296 111.892 36.584 111.892 36.84C111.903 37.096 111.919 37.336 111.94 37.56C111.972 37.784 112.009 38.008 112.052 38.232C112.095 38.4453 112.153 38.68 112.228 38.936C112.132 38.9787 112.009 39.016 111.86 39.048C111.721 39.08 111.556 39.096 111.364 39.096C111.151 39.096 110.975 39.0587 110.836 38.984C110.708 38.8987 110.607 38.792 110.532 38.664C110.457 38.5253 110.404 38.3653 110.372 38.184C110.351 38.0027 110.335 37.8107 110.324 37.608H110.308C110.18 37.8107 110.031 38.008 109.86 38.2C109.7 38.3813 109.508 38.5413 109.284 38.68C109.06 38.8187 108.804 38.9253 108.516 39C108.239 39.0853 107.919 39.128 107.556 39.128ZM108.02 37.72C108.532 37.72 108.975 37.5707 109.348 37.272C109.732 36.9733 110.031 36.6 110.244 36.152V35.48C109.7 35.384 109.215 35.336 108.788 35.336C108.084 35.336 107.556 35.4533 107.204 35.688C106.863 35.912 106.692 36.2373 106.692 36.664C106.692 37.0053 106.815 37.2667 107.06 37.448C107.305 37.6293 107.625 37.72 108.02 37.72ZM116.718 39.112C116.302 39.112 115.929 39.048 115.598 38.92C115.278 38.7813 115.006 38.5947 114.782 38.36C114.558 38.1147 114.387 37.832 114.27 37.512C114.153 37.1813 114.094 36.8187 114.094 36.424V32.632H112.878C112.857 32.5573 112.841 32.4613 112.83 32.344C112.819 32.2267 112.814 32.1093 112.814 31.992C112.814 31.7253 112.867 31.5387 112.974 31.432C113.091 31.3253 113.235 31.272 113.406 31.272H114.094V30.168C114.094 30.04 114.105 29.9173 114.126 29.8C114.158 29.6827 114.206 29.576 114.27 29.48C114.345 29.384 114.446 29.3093 114.574 29.256C114.713 29.2027 114.894 29.176 115.118 29.176C115.374 29.176 115.603 29.2133 115.806 29.288V31.272H118.43C118.483 31.432 118.51 31.6453 118.51 31.912C118.51 32.1787 118.451 32.3653 118.334 32.472C118.227 32.5787 118.089 32.632 117.918 32.632H115.806V36.36C115.806 36.7653 115.902 37.08 116.094 37.304C116.286 37.528 116.569 37.64 116.942 37.64C117.102 37.64 117.246 37.624 117.374 37.592C117.502 37.56 117.614 37.5227 117.71 37.48C117.817 37.4373 117.913 37.4 117.998 37.368C118.094 37.336 118.185 37.32 118.27 37.32C118.473 37.32 118.633 37.3893 118.75 37.528C118.867 37.6667 118.926 37.8853 118.926 38.184C118.926 38.2373 118.926 38.296 118.926 38.36C118.926 38.4133 118.921 38.4667 118.91 38.52C118.601 38.7013 118.27 38.8453 117.918 38.952C117.577 39.0587 117.177 39.112 116.718 39.112ZM123.461 39.128C122.874 39.128 122.341 39.0267 121.861 38.824C121.381 38.6107 120.97 38.328 120.629 37.976C120.288 37.6133 120.021 37.192 119.829 36.712C119.648 36.232 119.557 35.7147 119.557 35.16C119.557 34.6053 119.648 34.088 119.829 33.608C120.021 33.128 120.288 32.7067 120.629 32.344C120.97 31.9813 121.381 31.6987 121.861 31.496C122.341 31.2827 122.874 31.176 123.461 31.176C124.037 31.176 124.522 31.2347 124.917 31.352C125.322 31.4693 125.685 31.6187 126.005 31.8C126.016 31.8533 126.021 31.9067 126.021 31.96C126.021 32.0027 126.021 32.0453 126.021 32.088C126.021 32.3867 125.957 32.6267 125.829 32.808C125.701 32.9787 125.536 33.064 125.333 33.064C125.237 33.064 125.13 33.048 125.013 33.016C124.906 32.9733 124.784 32.9307 124.645 32.888C124.517 32.8347 124.362 32.7867 124.181 32.744C124.01 32.7013 123.808 32.68 123.573 32.68C123.264 32.68 122.976 32.7333 122.709 32.84C122.442 32.9467 122.208 33.1067 122.005 33.32C121.802 33.5333 121.642 33.7947 121.525 34.104C121.408 34.4133 121.349 34.7653 121.349 35.16C121.349 35.5547 121.408 35.9067 121.525 36.216C121.642 36.5253 121.802 36.7867 122.005 37C122.218 37.2027 122.464 37.3627 122.741 37.48C123.018 37.5867 123.317 37.64 123.637 37.64C123.861 37.64 124.064 37.6187 124.245 37.576C124.426 37.5333 124.586 37.4853 124.725 37.432C124.874 37.3787 125.008 37.3307 125.125 37.288C125.242 37.2453 125.349 37.224 125.445 37.224C125.658 37.224 125.829 37.2987 125.957 37.448C126.085 37.5973 126.149 37.8213 126.149 38.12C126.149 38.1733 126.144 38.232 126.133 38.296C126.133 38.36 126.128 38.424 126.117 38.488C125.744 38.6907 125.344 38.8507 124.917 38.968C124.501 39.0747 124.016 39.128 123.461 39.128ZM128.198 39.096C128.038 39.096 127.873 39.0853 127.702 39.064C127.542 39.0533 127.419 39.0373 127.334 39.016V28.856C127.334 28.6427 127.393 28.4667 127.51 28.328C127.638 28.1893 127.873 28.12 128.214 28.12C128.374 28.12 128.534 28.1307 128.694 28.152C128.865 28.1627 128.993 28.1787 129.078 28.2V32.408C129.334 32.056 129.67 31.7573 130.086 31.512C130.502 31.256 130.998 31.128 131.574 31.128C131.958 31.128 132.315 31.192 132.646 31.32C132.987 31.448 133.286 31.6453 133.542 31.912C133.798 32.1787 134.001 32.52 134.15 32.936C134.299 33.352 134.374 33.848 134.374 34.424V38.36C134.374 38.5733 134.31 38.7493 134.182 38.888C134.054 39.0267 133.819 39.096 133.478 39.096C133.318 39.096 133.158 39.0853 132.998 39.064C132.838 39.0533 132.715 39.0373 132.63 39.016V34.616C132.63 33.9333 132.481 33.432 132.182 33.112C131.883 32.7813 131.462 32.616 130.918 32.616C130.545 32.616 130.182 32.7173 129.83 32.92C129.489 33.112 129.238 33.3627 129.078 33.672V38.36C129.078 38.5733 129.014 38.7493 128.886 38.888C128.769 39.0267 128.539 39.096 128.198 39.096ZM142.327 39.112C141.911 39.112 141.538 39.048 141.207 38.92C140.887 38.7813 140.615 38.5947 140.391 38.36C140.167 38.1147 139.997 37.832 139.879 37.512C139.762 37.1813 139.703 36.8187 139.703 36.424V32.632H138.487C138.466 32.5573 138.45 32.4613 138.439 32.344C138.429 32.2267 138.423 32.1093 138.423 31.992C138.423 31.7253 138.477 31.5387 138.583 31.432C138.701 31.3253 138.845 31.272 139.015 31.272H139.703V30.168C139.703 30.04 139.714 29.9173 139.735 29.8C139.767 29.6827 139.815 29.576 139.879 29.48C139.954 29.384 140.055 29.3093 140.183 29.256C140.322 29.2027 140.503 29.176 140.727 29.176C140.983 29.176 141.213 29.2133 141.415 29.288V31.272H144.039C144.093 31.432 144.119 31.6453 144.119 31.912C144.119 32.1787 144.061 32.3653 143.943 32.472C143.837 32.5787 143.698 32.632 143.527 32.632H141.415V36.36C141.415 36.7653 141.511 37.08 141.703 37.304C141.895 37.528 142.178 37.64 142.551 37.64C142.711 37.64 142.855 37.624 142.983 37.592C143.111 37.56 143.223 37.5227 143.319 37.48C143.426 37.4373 143.522 37.4 143.607 37.368C143.703 37.336 143.794 37.32 143.879 37.32C144.082 37.32 144.242 37.3893 144.359 37.528C144.477 37.6667 144.535 37.8853 144.535 38.184C144.535 38.2373 144.535 38.296 144.535 38.36C144.535 38.4133 144.53 38.4667 144.519 38.52C144.21 38.7013 143.879 38.8453 143.527 38.952C143.186 39.0587 142.786 39.112 142.327 39.112ZM146.589 39.096C146.429 39.096 146.263 39.0853 146.093 39.064C145.933 39.0533 145.81 39.0373 145.725 39.016V28.856C145.725 28.6427 145.783 28.4667 145.901 28.328C146.029 28.1893 146.263 28.12 146.605 28.12C146.765 28.12 146.925 28.1307 147.085 28.152C147.255 28.1627 147.383 28.1787 147.469 28.2V32.408C147.725 32.056 148.061 31.7573 148.477 31.512C148.893 31.256 149.389 31.128 149.965 31.128C150.349 31.128 150.706 31.192 151.037 31.32C151.378 31.448 151.677 31.6453 151.933 31.912C152.189 32.1787 152.391 32.52 152.541 32.936C152.69 33.352 152.765 33.848 152.765 34.424V38.36C152.765 38.5733 152.701 38.7493 152.573 38.888C152.445 39.0267 152.21 39.096 151.869 39.096C151.709 39.096 151.549 39.0853 151.389 39.064C151.229 39.0533 151.106 39.0373 151.021 39.016V34.616C151.021 33.9333 150.871 33.432 150.573 33.112C150.274 32.7813 149.853 32.616 149.309 32.616C148.935 32.616 148.573 32.7173 148.221 32.92C147.879 33.112 147.629 33.3627 147.469 33.672V38.36C147.469 38.5733 147.405 38.7493 147.277 38.888C147.159 39.0267 146.93 39.096 146.589 39.096ZM158.107 39.176C157.456 39.176 156.875 39.0747 156.363 38.872C155.851 38.6693 155.419 38.3867 155.067 38.024C154.715 37.6613 154.443 37.2347 154.251 36.744C154.07 36.2427 153.979 35.704 153.979 35.128C153.979 34.552 154.075 34.024 154.267 33.544C154.459 33.0533 154.72 32.632 155.051 32.28C155.392 31.9173 155.792 31.6347 156.251 31.432C156.71 31.2293 157.206 31.128 157.739 31.128C158.336 31.128 158.864 31.24 159.323 31.464C159.782 31.6773 160.16 31.9653 160.459 32.328C160.768 32.6907 160.998 33.1013 161.147 33.56C161.307 34.0187 161.387 34.488 161.387 34.968C161.387 35.2347 161.36 35.5013 161.307 35.768H155.755C155.83 36.3867 156.07 36.8613 156.475 37.192C156.891 37.512 157.435 37.672 158.107 37.672C158.395 37.672 158.646 37.6507 158.859 37.608C159.072 37.5653 159.264 37.5173 159.435 37.464C159.606 37.4 159.76 37.3467 159.899 37.304C160.038 37.2613 160.176 37.24 160.315 37.24C160.507 37.24 160.662 37.3253 160.779 37.496C160.907 37.6667 160.971 37.896 160.971 38.184C160.971 38.2373 160.966 38.296 160.955 38.36C160.955 38.424 160.95 38.488 160.939 38.552C160.619 38.7013 160.219 38.8453 159.739 38.984C159.259 39.112 158.715 39.176 158.107 39.176ZM159.755 34.52C159.702 33.944 159.504 33.464 159.163 33.08C158.832 32.6853 158.358 32.488 157.739 32.488C157.152 32.488 156.683 32.6747 156.331 33.048C155.99 33.4213 155.792 33.912 155.739 34.52H159.755ZM167.239 39.096C166.866 39.096 166.583 39.0693 166.391 39.016V32.792H165.319C165.298 32.7173 165.282 32.6213 165.271 32.504C165.261 32.3867 165.255 32.2693 165.255 32.152C165.255 31.8853 165.309 31.6987 165.415 31.592C165.533 31.4853 165.677 31.432 165.847 31.432H166.391V30.584C166.391 29.6667 166.642 28.9893 167.143 28.552C167.655 28.104 168.322 27.88 169.143 27.88C169.549 27.88 169.943 27.9173 170.327 27.992C170.711 28.0667 171.042 28.152 171.319 28.248V28.488C171.319 28.84 171.255 29.096 171.127 29.256C171.01 29.4053 170.839 29.48 170.615 29.48C170.445 29.48 170.263 29.4533 170.071 29.4C169.879 29.3467 169.613 29.32 169.271 29.32C168.93 29.32 168.653 29.4213 168.439 29.624C168.237 29.8267 168.135 30.184 168.135 30.696V31.432H170.535C170.589 31.592 170.615 31.8053 170.615 32.072C170.615 32.3387 170.557 32.5253 170.439 32.632C170.333 32.7387 170.194 32.792 170.023 32.792H168.135V38.36C168.135 38.5733 168.071 38.7493 167.943 38.888C167.815 39.0267 167.581 39.096 167.239 39.096ZM172.682 39.096C172.522 39.096 172.362 39.0853 172.202 39.064C172.042 39.0533 171.919 39.0373 171.834 39.016V31.944C171.834 31.7307 171.898 31.5547 172.026 31.416C172.154 31.2773 172.383 31.208 172.714 31.208C172.885 31.208 173.05 31.2187 173.21 31.24C173.37 31.2507 173.493 31.2667 173.578 31.288V38.36C173.578 38.5733 173.514 38.7493 173.386 38.888C173.258 39.0267 173.023 39.096 172.682 39.096ZM172.714 29.816C172.447 29.816 172.218 29.72 172.026 29.528C171.834 29.336 171.738 29.1067 171.738 28.84C171.738 28.5627 171.834 28.328 172.026 28.136C172.218 27.944 172.447 27.848 172.714 27.848C172.991 27.848 173.226 27.944 173.418 28.136C173.61 28.328 173.706 28.5627 173.706 28.84C173.706 29.1067 173.61 29.336 173.418 29.528C173.226 29.72 172.991 29.816 172.714 29.816ZM176.292 39.096C176.132 39.096 175.966 39.0853 175.796 39.064C175.636 39.0533 175.513 39.0373 175.428 39.016V28.856C175.428 28.6427 175.486 28.4667 175.604 28.328C175.732 28.1893 175.966 28.12 176.308 28.12C176.468 28.12 176.628 28.1307 176.788 28.152C176.958 28.1627 177.086 28.1787 177.172 28.2V38.36C177.172 38.5733 177.108 38.7493 176.98 38.888C176.862 39.0267 176.633 39.096 176.292 39.096ZM179.854 39.096C179.694 39.096 179.529 39.0853 179.358 39.064C179.198 39.0533 179.075 39.0373 178.99 39.016V31.336C179.107 31.304 179.225 31.2773 179.342 31.256C179.47 31.224 179.609 31.208 179.758 31.208C180.089 31.208 180.323 31.2987 180.462 31.48C180.611 31.6507 180.686 31.8853 180.686 32.184L180.702 32.376C180.926 32.024 181.23 31.7307 181.614 31.496C181.998 31.2507 182.414 31.128 182.862 31.128C183.385 31.128 183.849 31.2613 184.254 31.528C184.67 31.784 184.969 32.168 185.15 32.68C185.459 32.168 185.811 31.784 186.206 31.528C186.611 31.2613 187.07 31.128 187.582 31.128C188.425 31.128 189.049 31.3893 189.454 31.912C189.87 32.4347 190.078 33.1493 190.078 34.056V38.36C190.078 38.5733 190.014 38.7493 189.886 38.888C189.769 39.0267 189.539 39.096 189.198 39.096C189.038 39.096 188.873 39.0853 188.702 39.064C188.542 39.0533 188.419 39.0373 188.334 39.016V34.232C188.334 33.688 188.211 33.288 187.966 33.032C187.721 32.7653 187.395 32.632 186.99 32.632C186.606 32.632 186.281 32.7333 186.014 32.936C185.747 33.128 185.545 33.3627 185.406 33.64V38.36C185.406 38.5733 185.342 38.7493 185.214 38.888C185.097 39.0267 184.867 39.096 184.526 39.096C184.366 39.096 184.201 39.0853 184.03 39.064C183.87 39.0533 183.747 39.0373 183.662 39.016V34.232C183.662 33.7093 183.539 33.3147 183.294 33.048C183.059 32.7707 182.718 32.632 182.27 32.632C181.929 32.632 181.619 32.7333 181.342 32.936C181.075 33.128 180.873 33.3573 180.734 33.624V38.36C180.734 38.5733 180.67 38.7493 180.542 38.888C180.425 39.0267 180.195 39.096 179.854 39.096Z" fill="white"/>
</g>
<path fill-rule="evenodd" clip-rule="evenodd" d="M0 35C0 15.6691 15.6712 0 35 0C54.3309 0 70 15.6691 70 35C70 54.3309 54.3309 70 35 70C15.6712 70 0 54.3309 0 35ZM34.5472 48.6823L46.6134 36.6685C47.5387 35.7476 47.5387 34.2535 46.6134 33.3326L34.5472 21.3166C32.6878 19.4638 29.9709 17.2654 27.6172 19.6104V50.3885C29.9709 52.7357 32.6878 50.5373 34.5472 48.6823Z" fill="white"/>
<defs>
<filter id="filter0_b_6626_185278" x="24.5625" y="-20" width="210" height="108" filterUnits="userSpaceOnUse" color-interpolation-filters="sRGB">
<feFlood flood-opacity="0" result="BackgroundImageFix"/>
<feGaussianBlur in="BackgroundImageFix" stdDeviation="13.5"/>
<feComposite in2="SourceAlpha" operator="in" result="effect1_backgroundBlur_6626_185278"/>
<feBlend mode="normal" in="SourceGraphic" in2="effect1_backgroundBlur_6626_185278" result="shape"/>
</filter>
</defs>
</svg>
